<svg xmlns="http://www.w3.org/2000/svg" xmlns:svg="http://www.w3.org/2000/svg" id="svg4825" width="64" height="64" version="1.1" viewBox="0 0 64 64"><metadata id="metadata4830"/><g id="layer1" transform="translate(543.81678,36.392479)"><g id="g8" fill="#fff" fill-opacity="1" fill-rule="evenodd" stroke="none" stroke-width="1" transform="matrix(3.2098214,0,0,3.2098214,-537.2007,-30.03534)"><path id="path10" fill="#fff" fill-opacity="1" d="M 8.0005123,0 C 4.6867048,0 2,1.958 2,1.958 L 2.00512,8.056 C 2.0051234,13.091 8.001537,16 8.001537,16 8.001537,16 14,13.259 14,8.041 L 14,1.958 C 14,1.958 11.31432,0 8.0005123,0 l 0,0 z M 9.607,7.875 l 0.955,2.939 -2.5,-1.816 -2.502,1.816 0.955,-2.939 -2.5,-1.816 3.091,0 0.956,-2.94 0.955,2.94 3.091,0 -2.501,1.816 0,0 z" class="si-glyph-fill"/></g></g></svg>