<svg xmlns="http://www.w3.org/2000/svg" xmlns:svg="http://www.w3.org/2000/svg" id="svg4825" width="64" height="64" version="1.1" viewBox="0 0 64 64"><metadata id="metadata4830"/><g id="layer1" transform="translate(543.81678,36.392479)"><g id="g8" fill="#fff" fill-opacity="1" fill-rule="evenodd" stroke="none" stroke-width="1" transform="matrix(3.0087381,0,0,3.0087381,-535.773,-28.57084)"><g id="g10" fill="#fff" fill-opacity="1"><path id="path12" fill="#fff" fill-opacity="1" d="m 5.811,11.799 5.852,-5.852 c 1.162,0.601 2.544,0.489 3.432,-0.398 0.684,-0.685 0.915,-1.666 0.709,-2.613 L 14.295,4.442 12.951,4.704 11.325,3.095 11.605,1.71 13.1,0.235 C 12.153,0.028 11.17,0.257 10.487,0.941 9.598,1.829 9.488,3.211 10.089,4.374 L 4.237,10.226 C 3.074,9.626 1.692,9.738 0.804,10.624 0.12,11.31 -0.111,12.29 0.096,13.237 l 1.508,-1.505 1.343,-0.263 1.628,1.609 -0.281,1.385 -1.495,1.476 c 0.946,0.206 1.929,-0.022 2.613,-0.707 0.887,-0.888 0.998,-2.27 0.399,-3.433 l 0,0 z" class="si-glyph-fill"/><g id="g14" fill="#fff" fill-opacity="1"><path id="path16" fill="#fff" fill-opacity="1" d="M 14.107,12.334 12.277,11.736 9.941,9.4 l -0.58,0.58 2.336,2.334 0.637,1.872 3.067,1.833 0.579,-0.579 -1.873,-3.106 z" class="si-glyph-fill"/><path id="path18" fill="#fff" fill-opacity="1" d="M 7.277,5.107 2.478,0.29 C 2.075,-0.114 1.367,-0.064 0.9,0.408 L 0.367,0.94 C -0.1,1.412 -0.153,2.119 0.252,2.525 l 4.797,4.817 2.228,-2.235 0,0 z" class="si-glyph-fill"/></g></g></g></g></svg>