<svg xmlns="http://www.w3.org/2000/svg" xmlns:svg="http://www.w3.org/2000/svg" id="svg4825" width="64" height="64" version="1.1" viewBox="0 0 64 64"><metadata id="metadata4830"/><g id="layer1" transform="translate(543.81678,36.392479)"><g id="g8" fill="#fff" fill-opacity="1" fill-rule="evenodd" stroke="none" stroke-width="1" transform="matrix(2.9812664,0,0,2.9812664,-538.56832,-28.244009)"><g id="g10" fill="#fff" fill-opacity="1" transform="translate(1,0)"><path id="path12" fill="#fff" fill-opacity="1" d="m 13.993,0.006 -11.921,0 -2.06,8.755 0,5.17 c 0,1.334 0.472,2.028 1.804,2.028 l 12.28,0 c 1.246,0 1.885,-0.527 1.885,-2.111 l 0,-5.087 -1.988,-8.755 0,0 z M 10.016,10 l -4.031,0 0,-1.031 4.031,0 0,1.031 0,0 z M 1.505,8.01 2.912,0.981 l 10.265,0 1.363,7.029 -13.035,0 0,0 z" class="si-glyph-fill"/><rect id="rect14" width="7.947" height=".968" x="4" y="4" fill="#fff" fill-opacity="1" class="si-glyph-fill"/><rect id="rect16" width="5.947" height=".968" x="5" y="2" fill="#fff" fill-opacity="1" class="si-glyph-fill"/><rect id="rect18" width="9.951" height=".965" x="3" y="6" fill="#fff" fill-opacity="1" class="si-glyph-fill"/></g></g></g></svg>