<svg xmlns="http://www.w3.org/2000/svg" xmlns:svg="http://www.w3.org/2000/svg" id="svg4825" width="64" height="64" version="1.1" viewBox="0 0 64 64"><metadata id="metadata4830"/><g id="layer1" transform="translate(543.81678,36.392479)"><g id="g8" fill="#fff" fill-rule="evenodd" stroke="none" stroke-width="1" transform="matrix(3.3580029,0,0,3.3580029,-537.91343,-31.292402)"><g id="g10" fill="#fff" transform="translate(0,1)"><path id="path12" fill="#fff" d="M 15.682,1.91 14.147,0.396 C 13.737,-0.012 12.929,-0.181 12.54,0.207 L 6.485,6.234 c 0,0 -1.321,3.913 -1.446,4.242 -0.099,0.262 0.231,0.59 0.46,0.475 C 5.873,10.765 9.604,9.32 9.604,9.32 l 6.071,-6.057 c 0.39,-0.388 0.418,-0.946 0.007,-1.353 l 0,0 z M 9.021,8.854 6.454,9.828 5.993,9.403 7.218,6.438 l 0.741,0.546 1.058,0 0.004,1.87 0,0 z" class="si-glyph-fill"/><path id="path14" fill="#fff" d="m 12.042,9.345 0,3.697 -11.084,0 L 0.958,2 9.141,1.917 9.953,1.058 0,1.058 0,14 13,14 12.943,8.578 12.042,9.345 Z" class="si-glyph-fill"/></g></g></g></svg>