<svg xmlns="http://www.w3.org/2000/svg" xmlns:svg="http://www.w3.org/2000/svg" id="svg4825" width="64" height="64" version="1.1" viewBox="0 0 64 64"><metadata id="metadata4830"/><g id="layer1" transform="translate(543.81678,36.392479)"><g id="g8" fill="#fff" fill-opacity="1" fill-rule="evenodd" stroke="none" stroke-width="1" transform="matrix(3.1894738,0,0,3.1894738,-540.43492,-31.678358)"><g id="g10" fill="#fff" fill-opacity="1" transform="translate(1,1)"><path id="path12" fill="#fff" fill-opacity="1" d="m 15.794,7.77 -3.81,-3.906 0,-2.8469375 -0.968,0.022 0,1.7279375 -2.514,-2.522 c -0.278,-0.276 -0.726,-0.276 -1.003,0 L 0.206,7.771 c -0.275,0.277 -0.274,0.727 0,1.002 0.276,0.276 0.727,0.276 1.003,-10e-4 L 8,1.982 l 6.793,6.79 c 0.138,0.138 0.318,0.208 0.5,0.208 0.181,0 0.361,-0.068 0.501,-0.207 0.274,-0.277 0.274,-0.728 0,-1.003 l 0,0 z" class="si-glyph-fill"/><path id="path14" fill="#fff" fill-opacity="1" d="m 3.043,8.532 0,5.69 c 0,0.394 0.2180239,0.785813 0.5670239,0.785813 l 2.277,0 0.063976,-3.993043 4.0739631,0 -0.0019,3.993043 2.303037,0 c 0.349,0 0.63195,-0.390813 0.63195,-0.785813 l 0,-5.691 L 8,3.625 3.043,8.532 l 0,0 z" class="si-glyph-fill"/></g></g></g></svg>